# Blender 4.3.1
# www.blender.org
o Biplane.001
v -0.010039 -0.393406 0.506090
v -0.015994 -0.390482 0.506090
v 0.027764 -0.293411 0.508767
v 0.015935 -0.293411 0.508521
v 0.027764 -0.293411 0.495888
v -0.010039 -0.393406 0.498442
v -0.025579 -0.376260 0.498442
v -0.028766 -0.293411 0.496539
v -0.005803 -0.036163 0.514189
v 0.013796 -0.035310 0.514189
v -0.013050 -0.035310 0.490343
v 0.013796 -0.035310 0.490343
v 0.016899 -0.092647 0.514189
v 0.016899 -0.092647 0.490343
v 0.001367 -0.092647 0.514189
v -0.016542 -0.092647 0.490343
v 0.023843 -0.192947 0.512705
v 0.023843 -0.192947 0.491882
v 0.012410 -0.193034 0.512604
v -0.022654 -0.193029 0.492134
v 0.013923 0.092324 0.490343
v -0.003986 0.092324 0.514190
v -0.019518 0.092324 0.490343
v -0.019518 0.092324 0.514190
v -0.016415 0.034987 0.490343
v 0.010432 0.034987 0.490343
v -0.016415 0.034987 0.514189
v 0.003184 0.035840 0.514189
v 0.026148 0.293088 0.496539
v 0.022960 0.375938 0.498442
v 0.007420 0.393084 0.498442
v -0.030383 0.293088 0.495889
v -0.018554 0.293088 0.508521
v -0.030383 0.293088 0.508767
v 0.013375 0.390160 0.506090
v 0.007420 0.393084 0.506090
v -0.026462 0.192625 0.512705
v -0.026462 0.192625 0.491882
v -0.015029 0.192711 0.512604
v 0.020035 0.192706 0.492134
v 0.000000 0.042839 0.519921
v -0.030291 0.030291 0.519921
v -0.042839 0.000000 0.519921
v -0.030291 -0.030291 0.519921
v 0.000000 -0.042839 0.519921
v 0.030291 -0.030291 0.519921
v 0.042839 0.000000 0.519921
v 0.030291 0.030291 0.519921
v 0.000000 0.042839 0.475295
v -0.030291 0.030291 0.475295
v -0.042839 0.000000 0.475295
v -0.030291 -0.030291 0.475295
v 0.000000 -0.042839 0.475295
v 0.030291 -0.030291 0.475295
v 0.042839 0.000000 0.475295
v 0.030291 0.030291 0.475295
v 0.000000 0.020441 0.529143
v -0.014454 0.014454 0.529143
v -0.020441 0.000000 0.529143
v -0.014454 -0.014454 0.529143
v 0.000000 -0.020441 0.529143
v 0.014454 -0.014454 0.529143
v 0.020441 0.000000 0.529143
v 0.014454 0.014454 0.529143
vn -0.0171 -0.0199 0.9997
vn -0.0142 -0.0217 -0.9997
vn -0.6618 -0.7088 -0.2443
vn 0.9992 0.0390 -0.0000
vn 0.9354 -0.3536 -0.0000
vn -0.3281 0.0496 0.9433
vn -0.8844 -0.0286 0.4659
vn -0.0000 -0.0000 -1.0000
vn -0.0000 -0.0000 1.0000
vn -0.0037 -0.0156 0.9999
vn -0.0031 -0.0166 -0.9999
vn -0.6416 -0.0150 0.7669
vn 0.9985 0.0540 -0.0000
vn -0.3768 0.0063 0.9263
vn -0.0087 -0.0417 -0.9991
vn -0.0147 -0.0404 0.9991
vn 0.9976 0.0691 -0.0000
vn 0.0147 0.0404 0.9991
vn -0.9992 -0.0390 -0.0000
vn 0.0037 0.0156 0.9999
vn 0.0087 0.0417 -0.9991
vn 0.6416 0.0150 0.7669
vn -0.9354 0.3536 -0.0000
vn -0.9976 -0.0691 -0.0000
vn 0.3768 -0.0063 0.9263
vn 0.8844 0.0286 0.4659
vn 0.6618 0.7088 -0.2443
vn 0.3281 -0.0496 0.9433
vn 0.0142 0.0217 -0.9997
vn 0.0171 0.0199 0.9997
vn 0.0031 0.0166 -0.9999
vn -0.9985 -0.0540 -0.0000
vn 0.9239 0.3827 -0.0000
vn 0.3827 -0.9239 -0.0000
vn -0.9239 -0.3827 -0.0000
vn -0.3827 0.9239 -0.0000
vn 0.3827 0.9239 -0.0000
vn 0.9239 -0.3827 -0.0000
vn -0.3827 -0.9239 -0.0000
vn -0.9239 0.3827 -0.0000
vn 0.3761 0.1558 0.9134
vn 0.1558 -0.3761 0.9134
vn -0.3761 -0.1558 0.9134
vn -0.1558 0.3761 0.9134
vn 0.1558 0.3761 0.9134
vn 0.3761 -0.1558 0.9134
vn -0.1558 -0.3761 0.9134
vn -0.3761 0.1558 0.9134
vt 0.615939 0.555153
vt 0.617416 0.614259
vt 0.623887 0.613039
vt 0.618782 0.562254
vt 0.613328 0.561666
vt 0.617623 0.575053
vt 0.619001 0.611362
vt 0.611555 0.614479
vt 0.618439 0.643557
vt 0.616013 0.643475
vt 0.622560 0.676528
vt 0.621909 0.687785
vt 0.623887 0.689929
vt 0.621738 0.676254
vt 0.619910 0.676953
vt 0.621980 0.698794
vt 0.620241 0.677011
vt 0.619696 0.691248
vt 0.623468 0.643072
vt 0.620379 0.642122
vt 0.605432 0.642409
vt 0.604271 0.612490
vt 0.599127 0.612983
vt 0.598743 0.643547
vt 0.611531 0.642216
vt 0.606739 0.612597
vt 0.602376 0.577949
vt 0.599906 0.578440
vt 0.603696 0.645296
vt 0.602322 0.613967
vt 0.601041 0.579394
vt 0.604055 0.695910
vt 0.607137 0.699079
vt 0.602587 0.579066
vt 0.600700 0.567511
vt 0.598743 0.564257
vt 0.602135 0.563664
vt 0.602857 0.692734
vt 0.604308 0.682219
vt 0.600309 0.555153
vt 0.645254 0.574476
vt 0.645538 0.570480
vt 0.657231 0.565216
vt 0.657170 0.578934
vt 0.643039 0.567293
vt 0.639023 0.566810
vt 0.633682 0.555153
vt 0.647609 0.555296
vt 0.635952 0.569446
vt 0.635650 0.573487
vt 0.623968 0.578782
vt 0.623911 0.565013
vt 0.638106 0.576646
vt 0.642097 0.576927
vt 0.647357 0.588570
vt 0.633664 0.588570
vt 0.642722 0.573124
vt 0.642878 0.571287
vt 0.641749 0.569837
vt 0.639875 0.569618
vt 0.638440 0.570843
vt 0.638309 0.572677
vt 0.639459 0.574115
vt 0.641291 0.574278
s 0
f 1/1/1 3/2/1 4/3/1 2/4/1
f 6/5/2 7/6/2 8/7/2 5/8/2
f 1/1/3 2/4/3 7/6/3 6/5/3
f 17/9/4 3/2/4 5/8/4 18/10/4
f 3/2/5 1/1/5 6/5/5 5/8/5
f 2/4/6 4/3/6 8/7/6 7/6/6
f 15/11/7 9/12/7 11/13/7 16/14/7
f 14/15/8 16/14/8 11/13/8 12/16/8
f 13/17/9 10/18/9 9/12/9 15/11/9
f 17/9/10 13/17/10 15/11/10 19/19/10
f 18/10/11 20/20/11 16/14/11 14/15/11
f 19/19/12 15/11/12 16/14/12 20/20/12
f 10/18/13 13/17/13 14/15/13 12/16/13
f 4/3/14 19/19/14 20/20/14 8/7/14
f 5/8/15 8/7/15 20/20/15 18/10/15
f 3/2/16 17/9/16 19/19/16 4/3/16
f 13/17/17 17/9/17 18/10/17 14/15/17
f 34/21/18 37/22/18 39/23/18 33/24/18
f 37/22/19 34/21/19 32/25/19 38/26/19
f 37/22/20 24/27/20 22/28/20 39/23/20
f 32/25/21 29/29/21 40/30/21 38/26/21
f 39/23/22 22/28/22 21/31/22 40/30/22
f 34/21/23 36/32/23 31/33/23 32/25/23
f 24/27/24 37/22/24 38/26/24 23/34/24
f 33/24/25 39/23/25 40/30/25 29/29/25
f 23/34/8 21/31/8 26/35/8 25/36/8
f 22/28/26 28/37/26 26/35/26 21/31/26
f 36/32/27 35/38/27 30/39/27 31/33/27
f 35/38/28 33/24/28 29/29/28 30/39/28
f 24/27/9 27/40/9 28/37/9 22/28/9
f 31/33/29 30/39/29 29/29/29 32/25/29
f 36/32/30 34/21/30 33/24/30 35/38/30
f 38/26/31 40/30/31 21/31/31 23/34/31
f 27/40/32 24/27/32 23/34/32 25/36/32
f 48/41/33 47/42/33 55/43/33 56/44/33
f 46/45/34 45/46/34 53/47/34 54/48/34
f 44/49/35 43/50/35 51/51/35 52/52/35
f 42/53/36 41/54/36 49/55/36 50/56/36
f 41/54/37 48/41/37 56/44/37 49/55/37
f 47/42/38 46/45/38 54/48/38 55/43/38
f 45/46/39 44/49/39 52/52/39 53/47/39
f 43/50/40 42/53/40 50/56/40 51/51/40
f 47/42/41 48/41/41 64/57/41 63/58/41
f 45/46/42 46/45/42 62/59/42 61/60/42
f 43/50/43 44/49/43 60/61/43 59/62/43
f 41/54/44 42/53/44 58/63/44 57/64/44
f 48/41/45 41/54/45 57/64/45 64/57/45
f 46/45/46 47/42/46 63/58/46 62/59/46
f 44/49/47 45/46/47 61/60/47 60/61/47
f 42/53/48 43/50/48 59/62/48 58/63/48
f 58/63/9 59/62/9 60/61/9 61/60/9 62/59/9 63/58/9 64/57/9 57/64/9
